<svg xmlns="http://www.w3.org/2000/svg" viewBox="0 0 900 1200" role="img" aria-labelledby="title desc">
  <title id="title">2026 Online Bible Study Poster</title>
  <desc id="desc">Poster for Jesus Set Me Free Ministries 2026 Online Bible Study registration.</desc>
  <defs>
    <linearGradient id="bg" x1="0" x2="1" y1="0" y2="1">
      <stop offset="0" stop-color="#f7fbff"/>
      <stop offset="0.48" stop-color="#edf4fb"/>
      <stop offset="1" stop-color="#f8efe4"/>
    </linearGradient>
    <linearGradient id="band" x1="0" x2="1">
      <stop offset="0" stop-color="#1a4b8c"/>
      <stop offset="1" stop-color="#8e1c1c"/>
    </linearGradient>
    <filter id="shadow" x="-20%" y="-20%" width="140%" height="140%">
      <feDropShadow dx="0" dy="18" stdDeviation="18" flood-color="#14233a" flood-opacity="0.18"/>
    </filter>
  </defs>
  <rect width="900" height="1200" fill="url(#bg)"/>
  <rect x="52" y="52" width="796" height="1096" rx="34" fill="#ffffff" filter="url(#shadow)"/>
  <rect x="52" y="52" width="796" height="1096" rx="34" fill="none" stroke="#c19a6b" stroke-width="8"/>
  <path d="M130 196 C220 110, 335 115, 450 218 C565 115, 680 110, 770 196 C842 265, 824 390, 731 485 L450 770 L169 485 C76 390, 58 265, 130 196Z" fill="#f4f7fb" stroke="#c19a6b" stroke-width="7"/>
  <path d="M275 254 C340 200, 411 211, 450 286 C489 211, 560 200, 625 254 C686 306, 676 392, 608 461 L450 621 L292 461 C224 392, 214 306, 275 254Z" fill="#fff7ed" stroke="#8e1c1c" stroke-width="10"/>
  <path d="M352 394 C392 363, 434 367, 450 418 C466 367, 508 363, 548 394 C585 424, 580 478, 539 518 L450 607 L361 518 C320 478, 315 424, 352 394Z" fill="#1a4b8c" opacity="0.95"/>
  <rect x="116" y="814" width="668" height="120" rx="28" fill="url(#band)"/>
  <text x="450" y="166" text-anchor="middle" font-family="Georgia, 'Times New Roman', serif" font-size="42" font-weight="700" fill="#1a4b8c">JESUS SET ME FREE MINISTRIES</text>
  <text x="450" y="220" text-anchor="middle" font-family="Arial, sans-serif" font-size="23" font-weight="700" letter-spacing="5" fill="#8e1c1c">HEART OF THE WORLD</text>
  <text x="450" y="850" text-anchor="middle" font-family="Georgia, 'Times New Roman', serif" font-size="78" font-weight="700" fill="#ffffff">2026</text>
  <text x="450" y="907" text-anchor="middle" font-family="Arial, sans-serif" font-size="34" font-weight="700" fill="#ffffff">ONLINE BIBLE STUDY</text>
  <text x="450" y="1000" text-anchor="middle" font-family="Arial, sans-serif" font-size="29" font-weight="700" fill="#1a4b8c">Registration is now open</text>
  <text x="450" y="1054" text-anchor="middle" font-family="Arial, sans-serif" font-size="25" fill="#333333">Grow deeper in God's Word together</text>
  <text x="450" y="1102" text-anchor="middle" font-family="Arial, sans-serif" font-size="22" font-weight="700" fill="#8e1c1c">Jesus Set Me Free Ministries</text>
</svg>
